<svg xmlns="http://www.w3.org/2000/svg" viewBox="0 0 512 512" role="img" aria-label="WhatsApp">
  <path fill="#25D366" d="M437 75A244 244 0 0 0 51 365L16 496l134-35A244 244 0 1 0 437 75zm-41 348a186 186 0 0 1-210 35l-8-4-80 21 21-78-5-8A186 186 0 1 1 396 423z"/>
  <path fill="#25D366" d="M370 314c-4-7-16-12-33-21-18-9-21-11-30 2-9 13-14 16-24 6-9-9-36-24-51-57-4-9 4-14 9-19 6-6 8-10 12-16 4-7 1-13-1-18-3-6-27-65-38-88-10-22-20-19-28-19h-24c-7 0-19 3-29 14-10 11-38 36-38 87s39 101 44 108c5 7 76 116 185 159 109 43 109 29 129 27 19-2 61-25 69-50 9-24 9-45 6-49z"/>
</svg>
